<mxfile host="Electron" modified="2024-02-26T07:04:00.338Z" agent="Mozilla/5.0 (Macintosh; Intel Mac OS X 10_15_7) AppleWebKit/537.36 (KHTML, like Gecko) draw.io/23.1.5 Chrome/120.0.6099.109 Electron/28.1.0 Safari/537.36" etag="WU2MrwkpJ_6_fMO9Ac3m" version="23.1.5" type="device">
  <diagram name="第 1 页" id="4K4YAn_VN4VAZEJCBngb">
    <mxGraphModel dx="1026" dy="653" grid="1" gridSize="10" guides="1" tooltips="1" connect="1" arrows="1" fold="1" page="1" pageScale="1" pageWidth="1600" pageHeight="1200" math="0" shadow="0">
      <root>
        <mxCell id="0" />
        <mxCell id="1" parent="0" />
        <mxCell id="WtwM-5KlWbVFnZFw51Fc-11" style="rounded=0;orthogonalLoop=1;jettySize=auto;html=1;" edge="1" parent="1" source="WtwM-5KlWbVFnZFw51Fc-1" target="WtwM-5KlWbVFnZFw51Fc-5">
          <mxGeometry relative="1" as="geometry" />
        </mxCell>
        <mxCell id="WtwM-5KlWbVFnZFw51Fc-12" style="rounded=0;orthogonalLoop=1;jettySize=auto;html=1;fillColor=#dae8fc;strokeColor=#6c8ebf;strokeWidth=3;" edge="1" parent="1" source="WtwM-5KlWbVFnZFw51Fc-1" target="WtwM-5KlWbVFnZFw51Fc-6">
          <mxGeometry relative="1" as="geometry" />
        </mxCell>
        <mxCell id="WtwM-5KlWbVFnZFw51Fc-13" style="rounded=0;orthogonalLoop=1;jettySize=auto;html=1;" edge="1" parent="1" source="WtwM-5KlWbVFnZFw51Fc-1" target="WtwM-5KlWbVFnZFw51Fc-7">
          <mxGeometry relative="1" as="geometry" />
        </mxCell>
        <mxCell id="WtwM-5KlWbVFnZFw51Fc-15" style="rounded=0;orthogonalLoop=1;jettySize=auto;html=1;" edge="1" parent="1" source="WtwM-5KlWbVFnZFw51Fc-1" target="WtwM-5KlWbVFnZFw51Fc-8">
          <mxGeometry relative="1" as="geometry" />
        </mxCell>
        <mxCell id="WtwM-5KlWbVFnZFw51Fc-1" value="" style="ellipse;whiteSpace=wrap;html=1;aspect=fixed;fillColor=#dae8fc;strokeColor=#6c8ebf;" vertex="1" parent="1">
          <mxGeometry x="240" y="200" width="80" height="80" as="geometry" />
        </mxCell>
        <mxCell id="WtwM-5KlWbVFnZFw51Fc-10" style="rounded=0;orthogonalLoop=1;jettySize=auto;html=1;fillColor=#f8cecc;strokeColor=#b85450;strokeWidth=3;" edge="1" parent="1" source="WtwM-5KlWbVFnZFw51Fc-3" target="WtwM-5KlWbVFnZFw51Fc-6">
          <mxGeometry relative="1" as="geometry" />
        </mxCell>
        <mxCell id="WtwM-5KlWbVFnZFw51Fc-16" style="rounded=0;orthogonalLoop=1;jettySize=auto;html=1;" edge="1" parent="1" source="WtwM-5KlWbVFnZFw51Fc-3" target="WtwM-5KlWbVFnZFw51Fc-5">
          <mxGeometry relative="1" as="geometry" />
        </mxCell>
        <mxCell id="WtwM-5KlWbVFnZFw51Fc-17" style="rounded=0;orthogonalLoop=1;jettySize=auto;html=1;" edge="1" parent="1" source="WtwM-5KlWbVFnZFw51Fc-3" target="WtwM-5KlWbVFnZFw51Fc-7">
          <mxGeometry relative="1" as="geometry" />
        </mxCell>
        <mxCell id="WtwM-5KlWbVFnZFw51Fc-18" style="rounded=0;orthogonalLoop=1;jettySize=auto;html=1;" edge="1" parent="1" source="WtwM-5KlWbVFnZFw51Fc-3" target="WtwM-5KlWbVFnZFw51Fc-8">
          <mxGeometry relative="1" as="geometry" />
        </mxCell>
        <mxCell id="WtwM-5KlWbVFnZFw51Fc-3" value="" style="ellipse;whiteSpace=wrap;html=1;aspect=fixed;fillColor=#f8cecc;strokeColor=#b85450;" vertex="1" parent="1">
          <mxGeometry x="240" y="320" width="80" height="80" as="geometry" />
        </mxCell>
        <mxCell id="WtwM-5KlWbVFnZFw51Fc-9" style="rounded=0;orthogonalLoop=1;jettySize=auto;html=1;" edge="1" parent="1" source="WtwM-5KlWbVFnZFw51Fc-4" target="WtwM-5KlWbVFnZFw51Fc-7">
          <mxGeometry relative="1" as="geometry" />
        </mxCell>
        <mxCell id="WtwM-5KlWbVFnZFw51Fc-19" style="rounded=0;orthogonalLoop=1;jettySize=auto;html=1;" edge="1" parent="1" source="WtwM-5KlWbVFnZFw51Fc-4" target="WtwM-5KlWbVFnZFw51Fc-5">
          <mxGeometry relative="1" as="geometry" />
        </mxCell>
        <mxCell id="WtwM-5KlWbVFnZFw51Fc-20" style="rounded=0;orthogonalLoop=1;jettySize=auto;html=1;fillColor=#e1d5e7;strokeColor=#9673a6;strokeWidth=3;" edge="1" parent="1" source="WtwM-5KlWbVFnZFw51Fc-4" target="WtwM-5KlWbVFnZFw51Fc-6">
          <mxGeometry relative="1" as="geometry" />
        </mxCell>
        <mxCell id="WtwM-5KlWbVFnZFw51Fc-21" style="rounded=0;orthogonalLoop=1;jettySize=auto;html=1;" edge="1" parent="1" source="WtwM-5KlWbVFnZFw51Fc-4" target="WtwM-5KlWbVFnZFw51Fc-8">
          <mxGeometry relative="1" as="geometry" />
        </mxCell>
        <mxCell id="WtwM-5KlWbVFnZFw51Fc-4" value="" style="ellipse;whiteSpace=wrap;html=1;aspect=fixed;fillColor=#e1d5e7;strokeColor=#9673a6;" vertex="1" parent="1">
          <mxGeometry x="240" y="440" width="80" height="80" as="geometry" />
        </mxCell>
        <mxCell id="WtwM-5KlWbVFnZFw51Fc-39" style="rounded=0;orthogonalLoop=1;jettySize=auto;html=1;" edge="1" parent="1" source="WtwM-5KlWbVFnZFw51Fc-5" target="WtwM-5KlWbVFnZFw51Fc-27">
          <mxGeometry relative="1" as="geometry" />
        </mxCell>
        <mxCell id="WtwM-5KlWbVFnZFw51Fc-40" style="rounded=0;orthogonalLoop=1;jettySize=auto;html=1;" edge="1" parent="1" source="WtwM-5KlWbVFnZFw51Fc-5" target="WtwM-5KlWbVFnZFw51Fc-28">
          <mxGeometry relative="1" as="geometry" />
        </mxCell>
        <mxCell id="WtwM-5KlWbVFnZFw51Fc-41" style="rounded=0;orthogonalLoop=1;jettySize=auto;html=1;" edge="1" parent="1" source="WtwM-5KlWbVFnZFw51Fc-5" target="WtwM-5KlWbVFnZFw51Fc-29">
          <mxGeometry relative="1" as="geometry" />
        </mxCell>
        <mxCell id="WtwM-5KlWbVFnZFw51Fc-5" value="" style="ellipse;whiteSpace=wrap;html=1;aspect=fixed;" vertex="1" parent="1">
          <mxGeometry x="440" y="200" width="80" height="80" as="geometry" />
        </mxCell>
        <mxCell id="WtwM-5KlWbVFnZFw51Fc-36" style="rounded=0;orthogonalLoop=1;jettySize=auto;html=1;fillColor=#ffe6cc;strokeColor=#d79b00;strokeWidth=3;" edge="1" parent="1" source="WtwM-5KlWbVFnZFw51Fc-6" target="WtwM-5KlWbVFnZFw51Fc-28">
          <mxGeometry relative="1" as="geometry" />
        </mxCell>
        <mxCell id="WtwM-5KlWbVFnZFw51Fc-37" style="rounded=0;orthogonalLoop=1;jettySize=auto;html=1;fillColor=#ffe6cc;strokeColor=#d79b00;strokeWidth=3;" edge="1" parent="1" source="WtwM-5KlWbVFnZFw51Fc-6" target="WtwM-5KlWbVFnZFw51Fc-27">
          <mxGeometry relative="1" as="geometry" />
        </mxCell>
        <mxCell id="WtwM-5KlWbVFnZFw51Fc-38" style="rounded=0;orthogonalLoop=1;jettySize=auto;html=1;strokeWidth=3;fillColor=#ffe6cc;strokeColor=#d79b00;" edge="1" parent="1" source="WtwM-5KlWbVFnZFw51Fc-6" target="WtwM-5KlWbVFnZFw51Fc-29">
          <mxGeometry relative="1" as="geometry" />
        </mxCell>
        <mxCell id="WtwM-5KlWbVFnZFw51Fc-6" value="" style="ellipse;whiteSpace=wrap;html=1;aspect=fixed;fillColor=#ffe6cc;strokeColor=#d79b00;" vertex="1" parent="1">
          <mxGeometry x="440" y="320" width="80" height="80" as="geometry" />
        </mxCell>
        <mxCell id="WtwM-5KlWbVFnZFw51Fc-33" style="rounded=0;orthogonalLoop=1;jettySize=auto;html=1;" edge="1" parent="1" source="WtwM-5KlWbVFnZFw51Fc-7" target="WtwM-5KlWbVFnZFw51Fc-29">
          <mxGeometry relative="1" as="geometry" />
        </mxCell>
        <mxCell id="WtwM-5KlWbVFnZFw51Fc-34" style="rounded=0;orthogonalLoop=1;jettySize=auto;html=1;" edge="1" parent="1" source="WtwM-5KlWbVFnZFw51Fc-7" target="WtwM-5KlWbVFnZFw51Fc-28">
          <mxGeometry relative="1" as="geometry" />
        </mxCell>
        <mxCell id="WtwM-5KlWbVFnZFw51Fc-35" style="rounded=0;orthogonalLoop=1;jettySize=auto;html=1;" edge="1" parent="1" source="WtwM-5KlWbVFnZFw51Fc-7" target="WtwM-5KlWbVFnZFw51Fc-27">
          <mxGeometry relative="1" as="geometry" />
        </mxCell>
        <mxCell id="WtwM-5KlWbVFnZFw51Fc-7" value="" style="ellipse;whiteSpace=wrap;html=1;aspect=fixed;" vertex="1" parent="1">
          <mxGeometry x="440" y="440" width="80" height="80" as="geometry" />
        </mxCell>
        <mxCell id="WtwM-5KlWbVFnZFw51Fc-30" style="rounded=0;orthogonalLoop=1;jettySize=auto;html=1;" edge="1" parent="1" source="WtwM-5KlWbVFnZFw51Fc-8" target="WtwM-5KlWbVFnZFw51Fc-29">
          <mxGeometry relative="1" as="geometry" />
        </mxCell>
        <mxCell id="WtwM-5KlWbVFnZFw51Fc-31" style="rounded=0;orthogonalLoop=1;jettySize=auto;html=1;" edge="1" parent="1" source="WtwM-5KlWbVFnZFw51Fc-8" target="WtwM-5KlWbVFnZFw51Fc-28">
          <mxGeometry relative="1" as="geometry" />
        </mxCell>
        <mxCell id="WtwM-5KlWbVFnZFw51Fc-32" style="rounded=0;orthogonalLoop=1;jettySize=auto;html=1;" edge="1" parent="1" source="WtwM-5KlWbVFnZFw51Fc-8" target="WtwM-5KlWbVFnZFw51Fc-27">
          <mxGeometry relative="1" as="geometry" />
        </mxCell>
        <mxCell id="WtwM-5KlWbVFnZFw51Fc-8" value="" style="ellipse;whiteSpace=wrap;html=1;aspect=fixed;" vertex="1" parent="1">
          <mxGeometry x="440" y="560" width="80" height="80" as="geometry" />
        </mxCell>
        <mxCell id="WtwM-5KlWbVFnZFw51Fc-23" style="rounded=0;orthogonalLoop=1;jettySize=auto;html=1;" edge="1" parent="1" source="WtwM-5KlWbVFnZFw51Fc-22" target="WtwM-5KlWbVFnZFw51Fc-5">
          <mxGeometry relative="1" as="geometry" />
        </mxCell>
        <mxCell id="WtwM-5KlWbVFnZFw51Fc-24" style="rounded=0;orthogonalLoop=1;jettySize=auto;html=1;fillColor=#d5e8d4;strokeColor=#82b366;strokeWidth=3;" edge="1" parent="1" source="WtwM-5KlWbVFnZFw51Fc-22" target="WtwM-5KlWbVFnZFw51Fc-6">
          <mxGeometry relative="1" as="geometry" />
        </mxCell>
        <mxCell id="WtwM-5KlWbVFnZFw51Fc-25" style="rounded=0;orthogonalLoop=1;jettySize=auto;html=1;" edge="1" parent="1" source="WtwM-5KlWbVFnZFw51Fc-22" target="WtwM-5KlWbVFnZFw51Fc-7">
          <mxGeometry relative="1" as="geometry" />
        </mxCell>
        <mxCell id="WtwM-5KlWbVFnZFw51Fc-26" style="rounded=0;orthogonalLoop=1;jettySize=auto;html=1;" edge="1" parent="1" source="WtwM-5KlWbVFnZFw51Fc-22" target="WtwM-5KlWbVFnZFw51Fc-8">
          <mxGeometry relative="1" as="geometry" />
        </mxCell>
        <mxCell id="WtwM-5KlWbVFnZFw51Fc-22" value="" style="ellipse;whiteSpace=wrap;html=1;aspect=fixed;fillColor=#d5e8d4;strokeColor=#82b366;" vertex="1" parent="1">
          <mxGeometry x="240" y="560" width="80" height="80" as="geometry" />
        </mxCell>
        <mxCell id="WtwM-5KlWbVFnZFw51Fc-27" value="" style="ellipse;whiteSpace=wrap;html=1;aspect=fixed;" vertex="1" parent="1">
          <mxGeometry x="640" y="260" width="80" height="80" as="geometry" />
        </mxCell>
        <mxCell id="WtwM-5KlWbVFnZFw51Fc-28" value="" style="ellipse;whiteSpace=wrap;html=1;aspect=fixed;" vertex="1" parent="1">
          <mxGeometry x="640" y="380" width="80" height="80" as="geometry" />
        </mxCell>
        <mxCell id="WtwM-5KlWbVFnZFw51Fc-29" value="" style="ellipse;whiteSpace=wrap;html=1;aspect=fixed;" vertex="1" parent="1">
          <mxGeometry x="640" y="500" width="80" height="80" as="geometry" />
        </mxCell>
      </root>
    </mxGraphModel>
  </diagram>
</mxfile>
